PathFileType	3	(X/Y/Z)	D:\minhoCalibration\240510\subject5_KPNP\preferred\preferred09.trc
DataRate	CameraRate	NumFrames	NumMarkers	Units	OrigDataRate	OrigDataStartFrame	OrigNumFrames
200.0	200.0	30	10	mm	200.0	325	136	
Frame#	Time	Left_Ankle_Outer1			Left_Ankle_Inner1			Left_Knee_Outer1			Left_Knee_Inner1			Left_Wrist1			Right_Wrist1			Right_Knee_Inner1			Right_Knee_Outer1			Right_Ankle_Inner1			Right_Ankle_Outer1			
		X1	Y1	Z1	X2	Y2	Z2	X3	Y3	Z3	X4	Y4	Z4	X5	Y5	Z5	X6	Y6	Z6	X7	Y7	Z7	X8	Y8	Z8	X9	Y9	Z9	X10	Y10	Z10	
325	1.615	-476.69574	73.33004	-585.20117	-521.42157	84.803589	-561.06018	-346.53427	528.48602	-490.85773	-435.2052	516.03015	-459.53705	-347.66562	1001.122	-669.76678	-673.63354	1034.748	-696.65808	-764.4339	504.78668	-547.71655	-836.7066	561.26349	-574.28448	-680.19647	256.78009	-923.12689	-738.6366	323.62051	-964.04175
326	1.62	-476.44562	73.447891	-585.44397	-521.11725	84.895035	-561.12805	-345.20309	528.11926	-491.73975	-433.2984	515.86859	-460.10202	-345.14108	1001.4677	-669.17804	-671.32159	1037.8497	-689.98749	-765.13867	512.30908	-528.61456	-836.8418	568.21301	-553.6944	-683.17566	266.22327	-907.15875	-742.91089	332.61441	-946.71997
327	1.625	-476.54044	73.378723	-585.51453	-520.9173	85.180771	-560.89117	-343.8573	527.74225	-493.0939	-431.46414	515.69672	-460.59592	-342.48654	1001.8606	-668.91193	-670.37402	1040.348	-681.9704	-763.84424	518.90344	-509.93396	-836.33313	575.63037	-533.90186	-685.74542	275.69705	-890.89984	-746.74292	341.78552	-929.17877
328	1.63	-476.70407	73.170403	-585.45856	-520.67017	85.191177	-561.14398	-342.36945	527.63385	-494.59238	-429.63327	515.69946	-460.97137	-339.74744	1002.229	-669.03186	-668.37189	1043.3787	-675.5025	-762.54559	526.50446	-490.87958	-835.07635	584.00568	-513.90851	-688.77197	285.18463	-874.33923	-750.27338	351.24817	-911.3042
329	1.635	-476.59027	73.279465	-585.6897	-520.57391	85.488472	-561.0639	-340.92996	527.33698	-496.35083	-427.55524	515.57001	-461.76288	-337.4079	1002.3707	-669.44489	-666.05389	1046.7827	-668.54791	-761.6701	535.5387	-470.38522	-833.55402	592.44586	-493.67245	-691.69574	294.7612	-857.37653	-753.50806	360.93085	-893.26526
330	1.64	-476.63351	73.172005	-585.68042	-519.93207	85.794113	-561.20093	-339.48102	527.1629	-498.33307	-425.42575	515.3822	-462.6813	-335.70648	1002.1995	-670.12292	-662.45807	1050.3606	-663.00415	-757.76599	543.14355	-452.3428	-831.24713	601.73511	-473.27069	-694.61157	304.33041	-840.15839	-756.5246	370.93332	-874.74359
331	1.645	-476.44202	73.263329	-585.96985	-519.71246	86.025452	-561.30389	-338.1015	527.03607	-500.48297	-423.46823	515.46045	-463.47476	-332.52353	1003.4857	-670.45886	-661.18701	1054.6666	-653.68701	-755.3291	552.54663	-433.26343	-828.19751	611.13782	-453.26895	-697.47534	314.05612	-822.82123	-759.31427	381.44885	-856.1593
332	1.65	-476.18204	73.382095	-586.34888	-519.35455	86.255547	-561.56311	-336.51215	526.85822	-502.86847	-421.42416	515.52094	-464.60611	-330.96219	1003.6106	-671.70264	-659.09174	1058.7054	-645.07178	-751.41309	562.19208	-414.02994	-824.6698	621.20142	-433.17383	-700.86371	323.95166	-805.10901	-762.08765	392.2641	-837.36523
333	1.655	-475.90564	73.561493	-586.75665	-519.06439	86.552711	-561.59821	-335.17258	526.90125	-505.30618	-419.49976	515.59399	-465.79614	-330.16141	1003.3801	-673.22913	-654.07867	1062.5129	-641.09338	-747.53021	572.03217	-394.65598	-820.40515	631.3949	-412.84558	-704.19073	334.10678	-787.44128	-764.90656	403.52142	-818.37512
334	1.66	-475.53586	73.869339	-587.26703	-518.7536	86.834213	-561.64734	-334.04733	526.8269	-507.73608	-417.54825	515.76672	-467.16248	-329.04947	1003.6836	-674.85944	-652.03534	1066.4988	-632.63055	-742.80353	582.2533	-375.65353	-815.5744	642.16901	-393.18253	-708.31335	344.34036	-769.5636	-768.02899	415.07315	-799.30304
335	1.665	-476.06894	73.576698	-586.83496	-518.67639	87.103111	-561.79663	-332.81006	526.87524	-510.33884	-415.72244	515.93823	-468.49115	-327.79968	1004.2523	-676.48071	-647.95709	1070.8933	-626.73248	-737.58295	592.91119	-356.63895	-810.55048	653.33093	-373.28232	-711.99707	355.30963	-751.92181	-771.29358	427.02975	-780.16724
336	1.67	-476.16748	73.553513	-586.63629	-518.50574	87.688499	-561.29156	-331.78107	527.04211	-512.9649	-413.95975	516.25604	-469.83557	-326.72418	1004.8071	-678.2276	-644.9317	1074.4873	-619.53906	-731.9433	603.94568	-337.90189	-805.27454	665.12823	-353.12958	-715.34253	366.94119	-734.44702	-774.89532	439.37888	-761.03088
337	1.675	-476.03748	73.835892	-586.93298	-517.81702	87.985565	-561.89722	-330.61948	527.24182	-515.74023	-412.43393	516.58459	-471.08755	-325.64639	1005.5069	-680.41882	-642.23425	1079.0536	-610.84204	-726.12775	615.40002	-319.14658	-798.66577	677.25525	-333.5979	-719.48016	378.97144	-716.91083	-778.72351	452.27982	-741.9024
338	1.68	-475.55096	74.569214	-587.63281	-517.61786	88.404053	-561.86328	-329.98129	527.21118	-518.22284	-411.14603	517.37805	-471.32135	-325.07794	1005.9398	-682.69324	-638.24243	1082.999	-604.69324	-719.42493	626.94055	-300.93378	-791.98016	689.76099	-314.2384	-723.75262	391.50082	-699.47986	-782.7417	465.51556	-722.90497
339	1.685	-475.49945	74.930161	-587.86469	-517.69733	89.04393	-561.11804	-328.95905	527.58844	-520.8266	-409.22153	516.96075	-474.34665	-324.66699	1006.3239	-685.2204	-634.7381	1087.3428	-597.66699	-712.41412	638.69745	-282.987	-783.92792	702.59302	-295.1033	-728.07452	404.49545	-682.04602	-786.94342	479.20895	-703.80914
340	1.69	-475.44424	75.220276	-588.00275	-517.48065	89.423653	-561.10828	-328.28058	527.71692	-523.34082	-407.73318	517.59589	-475.58813	-324.76868	1006.3623	-687.8252	-630.72766	1090.5284	-591.51416	-705.12744	650.98328	-265.37424	-775.91382	715.86615	-276.4263	-731.91418	417.8959	-664.81812	-791.17535	493.29196	-684.73029
341	1.695	-475.56387	75.447548	-588.09363	-517.40643	89.678009	-561.4278	-327.56558	527.95746	-525.91718	-406.31509	517.92108	-476.27496	-325.00894	1006.4052	-690.6969	-626.44666	1094.7089	-584.80652	-697.50488	663.49677	-247.94351	-767.46918	729.57971	-258.13779	-737.19708	431.50793	-646.94879	-795.36041	507.90506	-665.67462
342	1.7	-476.05502	75.570137	-587.90619	-517.31354	90.162277	-560.71094	-326.89636	528.20319	-528.38916	-404.77612	518.63336	-476.87546	-324.84964	1006.6851	-693.72717	-622.19098	1098.984	-578.03461	-689.44916	676.15088	-231.03069	-758.48193	743.67297	-240.27487	-741.54535	445.26886	-629.68573	-799.50452	522.59045	-646.39886
343	1.705	-475.80347	76.371437	-588.25366	-516.9552	90.310463	-561.02173	-326.33072	528.28143	-530.89923	-402.95453	518.72925	-478.46103	-325.61743	1006.33	-696.92023	-617.9848	1103.0242	-571.34186	-681.06775	689.19965	-214.32368	-749.07324	758.2135	-222.71854	-746.67712	459.30997	-611.65717	-803.61102	537.75763	-627.10516
344	1.71	-476.26978	76.393745	-587.8374	-517.05493	91.216301	-559.69391	-325.44095	528.47009	-533.34741	-401.09317	519.90717	-477.62314	-326.5441	1006.1072	-700.08337	-614.13928	1107.4417	-565.11053	-672.05981	702.58679	-198.47667	-738.836	772.76825	-205.82956	-751.97638	473.64825	-593.63788	-807.60809	553.26898	-607.89362
345	1.715	-476.83157	76.525406	-587.66211	-517.35803	91.378365	-559.56256	-324.80945	528.58356	-535.65131	-399.11017	519.38495	-479.67807	-328.24298	1005.176	-703.59729	-612.21393	1113.9594	-560.22174	-662.46362	715.61511	-182.57449	-727.78381	787.65234	-189.8105	-757.50989	488.28693	-575.60596	-811.65253	569.29022	-588.3316
346	1.72	-477.63019	76.457756	-587.13403	-517.68469	91.776077	-558.67871	-324.29926	528.40167	-537.87695	-397.26471	519.8468	-480.30402	-331.56009	1003.2575	-707.23096	-605.80035	1117.338	-553.49878	-652.37408	729.1864	-167.48393	-716.3678	802.60803	-173.97966	-763.28296	503.20636	-557.4646	-815.70868	585.46509	-568.92133
347	1.725	-478.1774	76.892334	-587.02856	-518.07471	92.09787	-557.72583	-323.27856	528.604	-540.21539	-395.11673	520.4422	-479.43631	-334.05011	1001.9019	-710.71576	-598.88208	1121.6477	-545.93597	-641.72552	742.62714	-153.10506	-704.34222	817.92651	-158.56097	-769.16748	518.45532	-539.14197	-819.8042	601.99567	-549.41705
348	1.73	-479.01663	77.138603	-586.72662	-518.5838	92.041206	-557.67639	-322.56958	528.37158	-542.45471	-393.11844	520.20477	-479.33157	-336.8703	1000.5452	-714.12988	-591.87866	1125.3706	-539.52136	-630.41541	756.17633	-139.59695	-691.15216	832.96466	-144.41472	-775.22137	533.99854	-520.63452	-823.92566	618.7923	-529.75616
349	1.735	-479.97339	77.141808	-586.55096	-519.25775	92.777206	-555.67383	-321.84283	528.24823	-544.43488	-390.8222	519.81195	-480.58719	-338.67352	1000.5151	-716.70306	-585.98102	1128.949	-535.73505	-618.53925	769.70746	-126.74594	-677.32507	848.15192	-130.68697	-781.50519	549.72931	-501.84418	-828.06824	635.82837	-509.91653
350	1.74	-481.52371	77.391838	-585.55847	-519.64545	92.933472	-555.12097	-321.24121	527.88794	-546.2713	-388.48752	520.56818	-478.80356	-344.64417	996.6416	-723.36853	-579.87122	1133.958	-529.09204	-606.17688	783.10468	-114.25951	-662.4892	862.90613	-118.34935	-787.94226	565.68652	-482.6423	-832.13361	653.17737	-489.78162
351	1.745	-482.84641	77.550369	-584.79529	-520.68561	93.364044	-553.59607	-320.52249	527.63312	-547.88745	-385.77225	519.95337	-479.75882	-348.85385	994.76349	-726.25342	-575.19464	1138.0713	-522.64825	-593.3031	796.1853	-102.18043	-647.23322	877.9682	-105.78243	-794.5993	581.90063	-463.02478	-836.05103	670.62866	-469.42438
352	1.75	-484.24847	77.894638	-583.94305	-522.2276	93.641388	-551.49347	-319.93137	527.36523	-549.09882	-383.62094	519.64893	-479.01263	-353.69321	992.48608	-728.20319	-568.70398	1141.2188	-519.9837	-579.35492	809.13464	-91.940575	-630.75909	892.50854	-94.975822	-801.30768	598.39136	-442.66937	-839.72168	688.48212	-448.07751
353	1.755	-485.82053	78.230072	-582.90601	-522.99847	94.408737	-549.54523	-319.39551	527.08228	-550.15826	-381.14136	519.32025	-478.52414	-358.80661	990.68652	-730.95575	-563.91364	1145.3557	-513.77722	-564.85785	821.79785	-82.76664	-613.50055	906.73438	-84.931396	-807.82843	615.16925	-421.51776	-843.30127	706.44586	-426.51868
354	1.76	-487.37134	78.303123	-581.78113	-523.69598	95.110649	-547.89288	-318.96524	526.85486	-550.91309	-378.95883	519.07477	-477.49216	-363.98764	988.88312	-731.20032	-558.41144	1149.1196	-510.72311	-549.87317	833.96796	-74.135651	-595.65594	920.1521	-76.244553	-814.3172	632.10101	-399.60742	-846.55237	724.54456	-404.36566
